Coordinates
version=1
nRows=9
nColumns=24
inDegrees=yes

Units are S.I. units (second, meters, Newtons, ...)
Angles are in degrees.

endheader
time	pelvis_tilt	pelvis_list	pelvis_rotation	pelvis_tx	pelvis_ty	pelvis_tz	hip_flexion_r	hip_adduction_r	hip_rotation_r	knee_angle_r	ankle_angle_r	subtalar_angle_r	mtp_angle_r	hip_flexion_l	hip_adduction_l	hip_rotation_l	knee_angle_l	ankle_angle_l	subtalar_angle_l	mtp_angle_l	lumbar_extension	lumbar_bending	lumbar_rotation
      0.87566667	     -1.14532065	     -5.16346940	      8.27508654	     -0.41974707	      1.02572580	      0.28261636	     12.30587756	     11.66430592	     -3.61656806	    -16.04081488	      3.61506055	    -13.05665269	      5.08124042	     13.95891056	     -8.78068350	      1.89437237	    -66.42509775	     -7.40776733	      6.17880882	      3.17805166	     -0.25123849	      2.60780375	     -4.53782996
      0.87983333	     -1.14492129	     -5.12664793	      8.27047351	     -0.41493287	      1.02642495	      0.28270328	     11.81013597	     11.67923926	     -3.58508340	    -15.65657933	      3.62259433	    -13.01942872	      5.08315935	     14.65604150	     -8.70210437	      1.95116528	    -66.51871973	     -6.36952075	      5.81737936	      3.14993325	     -0.34351592	      2.57878091	     -4.55088406
      0.88400000	     -1.13171787	     -5.06366631	      8.24758438	     -0.41008343	      1.02715839	      0.28279402	     11.28774133	     11.66936154	     -3.53707581	    -15.26710932	      3.69712396	    -12.92057435	      5.08650878	     15.30611879	     -8.58992466	      1.98687306	    -66.52971237	     -5.44260867	      5.36723750	      3.13448535	     -0.40349740	      2.52761604	     -4.49543876
      0.88816667	     -1.05674402	     -5.02553747	      8.20447260	     -0.40526745	      1.02793564	      0.28291568	     10.70448131	     11.69802175	     -3.47749306	    -14.87880591	      3.78404856	    -12.76439758	      5.09131273	     15.88463726	     -8.52553082	      1.99154114	    -66.50504919	     -4.52375166	      4.94811350	      3.02270882	     -0.58768022	      2.52672347	     -4.30316126
      0.89233333	     -1.04691019	     -4.94868754	      8.13604553	     -0.40044905	      1.02861917	      0.28305206	     10.19646782	     11.67649640	     -3.39869200	    -14.52170218	      3.86383194	    -12.64995056	      5.09381626	     16.50316013	     -8.39793762	      1.97656907	    -66.40945673	     -3.69778785	      4.42501768	      2.98639727	     -0.67198928	      2.46243251	     -4.21981553
      0.89650000	     -0.98190672	     -4.87694523	      8.04568302	     -0.39568531	      1.02934301	      0.28322037	      9.63722738	     11.67142268	     -3.28901271	    -14.17869935	      3.96073141	    -12.50034909	      5.09532328	     17.05199221	     -8.29261228	      1.92861460	    -66.26855004	     -2.93870244	      3.85787316	      2.88230525	     -0.87914698	      2.42411145	     -4.00898471
      0.90066667	     -0.94072408	     -4.79087173	      7.93821826	     -0.39086328	      1.03003484	      0.28340491	      9.09053001	     11.64780867	     -3.17053879	    -13.82195844	      4.06487459	    -12.34036822	      4.99702376	     17.59592010	     -8.16399509	      1.87054893	    -66.06023801	     -2.18751757	      3.30691837	      0.02491678	     -0.98622206	      2.34806358	     -3.71092852
      0.90483333	     -0.89361629	     -4.71043415	      7.80939313	     -0.38609067	      1.03069017	      0.28363028	      8.54768720	     11.63551551	     -3.00751181	    -13.48136779	      4.15498517	    -12.22219973	      4.99840822	     18.12166063	     -8.05023061	      1.79022655	    -65.80244304	     -1.50965288	      2.74330458	      0.02350493	     -1.15860642	      2.29895472	     -3.58190968
      0.90900000	     -0.81256272	     -4.62074156	      7.67088560	     -0.38128532	      1.03138380	      0.28386019	      7.95201894	     11.61825908	     -2.82509276	    -13.11417525	      4.24370752	    -12.10417686	      4.99482793	     18.58360651	     -7.93149816	      1.69763108	    -65.47389728	     -0.94032926	      2.13061688	     -0.00289498	     -1.33110962	      2.22648849	     -3.32698265
